/vscmnt/brussel_pixiu_data/_data_brussel/112/vsc11236/PredSimResults/SUBJ07mtu3D/weighted-LRposFixed/trackIG/worker_04.mot
version=1
nRows=7
nColumns=50
inDegrees=yes
endheader
                time	         pelvis_tilt	         pelvis_list	     pelvis_rotation	           pelvis_tx	           pelvis_ty	           pelvis_tz	       hip_flexion_r	     hip_adduction_r	      hip_rotation_r	        knee_angle_r	       ankle_angle_r	         mtp_angle_r	       hip_flexion_l	     hip_adduction_l	      hip_rotation_l	        knee_angle_l	       ankle_angle_l	         mtp_angle_l	    lumbar_extension	      lumbar_bending	     lumbar_rotation	 ercspn_r/activation	 intobl_r/activation	 extobl_r/activation	    abd_r/activation	    add_r/activation	hamstrings_r/activation	bifemsh_r/activation	glut_max_r/activation	iliopsoas_r/activation	rect_fem_r/activation	  vasti_r/activation	gastroc_r/activation	 soleus_r/activation	tib_ant_r/activation	 ercspn_l/activation	 intobl_l/activation	 extobl_l/activation	    abd_l/activation	    add_l/activation	hamstrings_l/activation	bifemsh_l/activation	glut_max_l/activation	iliopsoas_l/activation	rect_fem_l/activation	  vasti_l/activation	gastroc_l/activation	 soleus_l/activation	tib_ant_l/activation	
          1.13384796	         -6.55840221	         -3.75028041	         10.10088962	          1.38329451	          0.84431080	         -0.01490891	         31.62106013	         -0.95338995	         -8.76918186	         -3.69239507	          7.40758820	          0.24723683	        -13.05290649	         -4.45195392	          5.89342063	         -5.65333451	          8.64095020	         27.55532632	         -6.48239123	          1.66640834	         -3.52913328	          0.10252445	          0.18946044	          0.03071168	          0.01188973	          0.13421606	          0.08825225	          0.21850552	          0.00999999	          0.10520782	          0.00999999	          0.00999999	          0.02873273	          0.00999999	          0.27223660	          0.02876245	          0.00999999	          0.00999999	          0.03993745	          0.05663241	          0.03304676	          0.15905818	          0.03584419	          0.44496381	          0.00999999	          0.00999999	          0.32351597	          0.27900550	          0.02167274	
          1.14518643	         -6.63625377	         -3.61832070	         10.05344715	          1.39955116	          0.84235828	         -0.01461728	         31.86388624	         -0.79088865	         -8.03743067	         -5.69275757	          7.11359558	          0.24857650	        -13.15934656	         -4.34039770	          5.40040845	         -7.41914605	          8.01167172	         29.34632575	         -6.29549957	          2.13048799	         -3.59686983	          0.08622930	          0.15934776	          0.02583039	          0.00999999	          0.21583349	          0.07422551	          0.18377643	          0.07534734	          0.08848618	          0.00999999	          0.00999999	          0.02741837	          0.01413660	          0.27084676	          0.08885734	          0.00999999	          0.00999999	          0.03358983	          0.10425555	          0.02779434	          0.13377760	          0.03014714	          0.46574649	          0.00999999	          0.00999999	          0.27376314	          0.26182032	          0.01822809	
          1.15652491	         -6.69589003	         -3.48852043	          9.94637033	          1.41616682	          0.84057836	         -0.01430921	         31.89856106	         -0.65141442	         -7.23650504	         -7.63355292	          6.79888410	          0.23332920	        -13.09289595	         -4.20920426	          4.85180385	         -9.58439569	          7.27344284	         31.10910694	         -6.08567264	          2.62075279	         -3.63850127	          0.07252409	          0.14602079	          0.02172493	          0.05127940	          0.20520449	          0.07229911	          0.15456715	          0.11192677	          0.07442226	          0.00999999	          0.00999999	          0.02306051	          0.01188974	          0.31618435	          0.11872898	          0.00999999	          0.00999999	          0.02825109	          0.11100731	          0.02678143	          0.11251510	          0.02535558	          0.44457513	          0.00999999	          0.00999999	          0.23025145	          0.24370339	          0.01533093	
          1.16786339	         -6.74005449	         -3.35692893	          9.77674056	          1.43293192	          0.83913227	         -0.01390511	         31.73011882	         -0.49180105	         -6.50163195	         -9.22780751	          6.37468317	          0.22112911	        -12.78147257	         -4.05939924	          4.25340746	        -12.23154532	          6.36755522	         32.77878442	         -5.87527059	          3.11663031	         -3.65446368	          0.08785853	          0.12281237	          0.01827199	          0.10930263	          0.21404629	          0.06472836	          0.13000038	          0.14378361	          0.06259365	          0.00999999	          0.00999999	          0.01939529	          0.00999999	          0.34178462	          0.14693976	          0.00999999	          0.00999999	          0.02376088	          0.11479461	          0.02252483	          0.09463204	          0.02132558	          0.42052202	          0.00999999	          0.00999999	          0.19365547	          0.20537443	          0.01289425	
          1.17920187	         -6.76917361	         -3.22524885	          9.55028188	          1.44961816	          0.83815418	         -0.01340204	         31.45650121	         -0.30587553	         -5.85981585	        -10.65778199	          6.00532391	          0.20549982	        -12.17932443	         -3.89866515	          3.60561256	        -15.39402209	          5.27798898	         34.16147320	         -5.68524537	          3.61826699	         -3.64478240	          0.08704431	          0.10329267	          0.01536785	          0.14228634	          0.21392191	          0.05444049	          0.10933822	          0.16930771	          0.05264506	          0.00999999	          0.00999999	          0.01631262	          0.01043097	          0.35818843	          0.17697241	          0.00999999	          0.00999999	          0.01998435	          0.11726789	          0.01894475	          0.07959130	          0.01793611	          0.37629614	          0.00999999	          0.00999999	          0.16287603	          0.17273239	          0.01084485	
          1.19054035	         -6.78296693	         -3.09833391	          9.27050348	          1.46605847	          0.83773079	         -0.01281159	         31.14829051	         -0.10165031	         -5.30517777	        -12.04190594	          5.76478189	          0.19318204	        -11.27109787	         -3.74241078	          2.90081881	        -19.05999609	          4.03708243	         34.94337706	         -5.52845937	          4.12883080	         -3.60772560	          0.07916785	          0.08687542	          0.01292530	          0.16037366	          0.19846018	          0.05002576	          0.09196010	          0.16960758	          0.04427770	          0.00999999	          0.07878463	          0.01371991	          0.00999999	          0.36819621	          0.20533421	          0.00999999	          0.00999999	          0.01680805	          0.13363271	          0.01593369	          0.06694113	          0.01508536	          0.31648794	          0.00999999	          0.00999999	          0.13698865	          0.14527844	          0.00999999	
          1.20187883	         -6.78360076	         -2.96900610	          8.93793302	          1.48216882	          0.83796397	         -0.01215871	         30.77701879	          0.10934649	         -4.83075666	        -13.30318490	          5.63042208	          0.17938459	        -10.06880868	         -3.59534893	          2.13884947	        -23.15992312	          2.59262413	         34.91868471	         -5.40918801	          4.63747857	         -3.54277316	          0.06658498	          0.07306751	          0.01087096	          0.16126985	          0.16691708	          0.05081544	          0.07734403	          0.15029218	          0.03724024	          0.00999999	          0.16077805	          0.01153928	          0.00999999	          0.36962651	          0.21189978	          0.00999999	          0.00999999	          0.01413659	          0.14913654	          0.01340120	          0.05630156	          0.01268771	          0.26618560	          0.00999999	          0.00999999	          0.11521578	          0.12218800	          0.00999999	
